<svg width="11" height="11" viewBox="0 0 11 11" fill="none" xmlns="http://www.w3.org/2000/svg">
<path d="M5.82354 0.737116C5.86354 0.643783 5.91354 0.597116 5.97354 0.597116C6.03354 0.597116 6.08354 0.643783 6.12354 0.737116L7.31354 3.45712C7.35354 3.55045 7.42354 3.63712 7.52354 3.71712C7.62354 3.79045 7.72687 3.83045 7.83354 3.83712L10.7835 4.12712C10.8902 4.13378 10.9502 4.16712 10.9635 4.22712C10.9835 4.28045 10.9569 4.34378 10.8835 4.41712L8.66354 6.37712C8.58354 6.44378 8.52354 6.54045 8.48354 6.66712C8.44354 6.78712 8.43688 6.89712 8.46354 6.99712L9.10354 9.89712C9.12354 9.99712 9.10687 10.0638 9.05354 10.0971C9.00688 10.1305 8.94021 10.1238 8.85354 10.0771L6.29354 8.56712C6.20687 8.51378 6.10021 8.48712 5.97354 8.48712C5.84687 8.48712 5.74021 8.51378 5.65354 8.56712L3.09354 10.0771C3.00021 10.1305 2.93021 10.1371 2.88354 10.0971C2.83687 10.0638 2.82687 9.99712 2.85354 9.89712L3.49354 6.99712C3.51354 6.89712 3.50354 6.78712 3.46354 6.66712C3.42354 6.54045 3.36687 6.44378 3.29354 6.37712L1.06354 4.41712C0.990208 4.34378 0.960208 4.28045 0.973541 4.22712C0.993541 4.16712 1.05687 4.13378 1.16354 4.12712L4.11354 3.83712C4.22021 3.83045 4.32354 3.79045 4.42354 3.71712C4.52354 3.63712 4.59687 3.55045 4.64354 3.45712L5.82354 0.737116Z" fill="black"/>
</svg>
