<svg width="10" height="10" viewBox="0 0 10 10" fill="none" xmlns="http://www.w3.org/2000/svg">
<path d="M5.03616 0.37C4.25616 0.37 3.5295 0.566666 2.85616 0.96C2.20283 1.34 1.6795 1.85333 1.28616 2.5C0.886163 3.16 0.679497 3.87667 0.666163 4.65C0.65283 5.45 0.839497 6.19667 1.22616 6.89C1.5995 7.56333 2.11283 8.1 2.76616 8.5C3.4395 8.90667 4.17283 9.11667 4.96616 9.13C5.7795 9.13667 6.53283 8.94 7.22616 8.54C7.8795 8.16 8.40283 7.64 8.79616 6.98C9.1895 6.32 9.39283 5.60667 9.40616 4.84C9.4195 4.03333 9.2295 3.28333 8.83616 2.59C8.4495 1.91667 7.92283 1.38 7.25616 0.979999C6.57616 0.573333 5.83616 0.37 5.03616 0.37ZM5.06616 8.25C4.42616 8.25 3.8295 8.09333 3.27616 7.78C2.7495 7.47333 2.3295 7.05333 2.01616 6.52C1.69616 5.98 1.53616 5.39333 1.53616 4.76C1.53616 4.12 1.69616 3.52667 2.01616 2.98C2.32283 2.45333 2.7395 2.03667 3.26616 1.73C3.81283 1.41 4.40283 1.25 5.03616 1.25C5.6695 1.25 6.25616 1.41 6.79616 1.73C7.32283 2.03667 7.74283 2.45333 8.05616 2.98C8.37616 3.52667 8.53616 4.11667 8.53616 4.75C8.53616 5.36333 8.38283 5.93667 8.07616 6.47C7.77616 7.00333 7.36616 7.43 6.84616 7.75C6.2995 8.07667 5.70616 8.24333 5.06616 8.25ZM5.33616 2.13H4.74616C4.72616 2.13 4.7095 2.13667 4.69616 2.15C4.68283 2.16333 4.67616 2.18 4.67616 2.2V4.3C4.67616 4.32 4.66616 4.33667 4.64616 4.35C4.63283 4.36333 4.61616 4.37 4.59616 4.37H3.25616C3.23616 4.37 3.2195 4.37667 3.20616 4.39C3.19283 4.40333 3.18616 4.42 3.18616 4.44V5.04C3.18616 5.06 3.19283 5.07667 3.20616 5.09C3.2195 5.10333 3.23616 5.11 3.25616 5.11H5.33616C5.35616 5.11 5.37283 5.10333 5.38616 5.09C5.3995 5.07667 5.40616 5.06 5.40616 5.04V2.2C5.40616 2.18 5.3995 2.16333 5.38616 2.15C5.37283 2.13667 5.35616 2.13 5.33616 2.13Z" fill="black"/>
</svg>
